<svg width="76" height="69" viewBox="0 0 76 69" fill="none" xmlns="http://www.w3.org/2000/svg">
<path d="M41.573 18.2042C40.4846 13.5991 40.6854 8.79564 41.7041 4.19513C41.7393 4.23519 41.8089 4.30465 41.8089 4.30465L42.6803 5.18888C48.9332 11.5592 55.8244 18.2967 62.0023 24.2552C66.1775 29.0871 69.7823 34.5532 71.5927 40.7291C72.4472 45.3526 73.0782 50.8079 71.9095 55.6773C69.5446 53.4761 66.5316 50.373 64.2498 48.0046C61.1702 44.7354 58.0736 41.5211 54.7619 38.2917C51.1949 34.9433 47.8604 31.2873 45.1058 27.2533C43.2373 24.563 42.2821 21.3826 41.5836 18.2033L41.573 18.2042Z" fill="#D4FD80"/>
<path d="M54.1268 51.4625C58.9958 53.9581 63.4866 57.2227 66.4929 61.7401C56.5989 63.3483 46.2692 65.5372 36.3724 66.9742C29.8923 67.2516 23.1706 66.7664 17.2057 64.0684C13.2994 62.257 9.69958 59.8537 6.51106 56.968C5.3254 55.8945 4.20912 54.7511 3.14264 53.561C11.1649 52.3581 19.5951 51.0373 27.5648 49.71C36.3365 48.2443 45.7889 48.0956 54.1375 51.4617L54.1268 51.4625Z" fill="#D4FD80"/>
<path d="M68.7621 26.7191C67.0402 23.7172 64.5555 21.2149 62.2008 18.7344C59.923 16.28 57.2405 13.8469 54.8721 11.4639C51.1198 7.79817 47.3552 4.11195 43.4543 0.597176C42.4339 -0.414499 40.5555 -0.0943924 39.9518 1.20655C39.6884 1.66653 39.6314 2.8492 39.5258 3.27527C39.0097 5.69388 38.9082 8.62589 39.1314 11.2002C39.6541 20.4555 43.1872 29.6439 49.8909 36.1713L52.6745 38.9391C58.4209 44.5784 65.3467 51.4845 70.7544 56.4865C72.2723 57.7051 74.5934 56.6217 74.7474 54.7673L74.8755 54.0823C75.5576 52.6895 75.6458 49.041 75.4542 46.8712C75.383 39.6901 73.1121 32.4153 68.7392 26.6995L68.7621 26.7191ZM41.9854 17.047C40.8971 12.442 41.0978 7.63851 42.1165 3.038C42.1517 3.07806 42.2214 3.14752 42.2214 3.14752L43.0927 4.03175C49.3456 10.4021 56.2369 17.1396 62.4147 23.0981C66.59 27.93 70.1947 33.3961 72.0051 39.5719C72.8597 44.1955 73.4907 49.6508 72.3219 54.5202C69.9571 52.319 66.944 49.2159 64.6623 46.8475C61.5827 43.5783 58.486 40.364 55.1743 37.1346C51.6073 33.7862 48.2728 30.1301 45.5183 26.0962C43.6497 23.4058 42.6945 20.2255 41.996 17.0462L41.9854 17.047Z" fill="#599D15"/>
<path d="M67.9666 57.489C61.9479 50.2862 51.837 45.1746 42.508 44.3067C39.2321 43.9877 35.8703 44.2111 32.6684 44.7003C30.591 44.8005 27.5114 45.0765 25.1195 45.3944C20.093 46.0709 15.0571 47.0373 10.1146 48.1034C9.60138 48.2405 8.82638 48.3125 8.2877 48.398C6.52203 48.6557 4.18162 48.9481 2.65082 49.3371L2.0492 49.4383C1.29462 49.498 0.410071 50.0822 0.149671 50.8525C-0.174497 51.6279 0.0494267 52.5741 0.61861 53.1503L1.03878 53.599C3.77948 56.638 6.9267 59.2699 10.361 61.4721C14.4902 64.0798 19.0386 66.0331 23.8063 67.1015C26.2437 67.6368 28.5792 68.373 31.1641 68.0612C35.2771 68.2818 40.4766 67.356 44.8892 66.7602C46.3908 66.5449 47.8793 66.2985 49.3802 66.0726L49.3941 66.1143C49.4252 66.1011 49.4562 66.088 49.4873 66.0748L49.56 66.0476C51.6926 65.6967 53.8138 65.3359 55.9325 64.9432C59.7072 64.2588 65.2213 63.2545 68.9258 62.6291C70.1922 62.5503 70.9222 60.9501 70.1488 59.951C69.4091 59.1099 68.6621 58.3122 67.9241 57.4924L67.9666 57.489ZM54.674 50.1231C59.5429 52.6187 64.0337 55.8833 67.0401 60.4007C57.146 62.0088 46.8163 64.1977 36.9196 65.6347C30.4394 65.9122 23.7177 65.427 17.7528 62.729C13.8465 60.9176 10.2467 58.5143 7.05819 55.6286C5.87253 54.5551 4.75625 53.4117 3.68977 52.2216C11.7121 51.0187 20.1422 49.6979 28.112 48.3706C36.8836 46.9049 46.336 46.7562 54.6846 50.1223L54.674 50.1231Z" fill="#599D15"/>
</svg>
