<svg width="15" height="15" viewBox="0 0 15 15" fill="none" xmlns="http://www.w3.org/2000/svg">
  <g opacity="0.4">
    <path d="M7.56274 4.39685H5.79518C5.58677 4.39685 5.39762 4.51952 5.31293 4.71026L4.44235 6.66908C4.41227 6.73661 4.39697 6.80943 4.39697 6.88329V7.2988C4.39697 7.59005 4.63309 7.82643 4.9246 7.82643H6.93618L6.54785 8.8524C6.44839 9.11516 6.53677 9.41564 6.75942 9.57261C7.01374 9.75174 7.3567 9.68526 7.53424 9.4225L8.61298 7.82643H8.61799V5.45211C8.61799 4.86934 8.1455 4.39685 7.56274 4.39685ZM9.40943 7.82643C9.26381 7.82643 9.14562 7.70824 9.14562 7.56261V4.66066C9.14562 4.51504 9.26381 4.39685 9.40943 4.39685C9.55506 4.39685 9.67325 4.51504 9.67325 4.66066V7.56261C9.67325 7.70824 9.55506 7.82643 9.40943 7.82643Z" fill="#686868"/>
  </g>
</svg>
