<svg xmlns="http://www.w3.org/2000/svg" viewBox="0 0 22 19" fill="none" aria-hidden="true">
  <!-- Green chat bubble + tail -->
  <path
    fill="#2E7918"
    d="M5 1.5h12A3.5 3.5 0 0 1 20.5 5v7A3.5 3.5 0 0 1 17 15.5h-3.25L11 18.8 8.25 15.5H5A3.5 3.5 0 0 1 1.5 12V5A3.5 3.5 0 0 1 5 1.5z"
  />
  <!-- ai-magic sparkles (scaled to fit, white on green) -->
  <g transform="translate(11 8.75) scale(0.34) translate(-12 -12)">
    <path
      d="M6.97704 8.8851L9.63121 2.90807L12.2854 8.8851L18.2624 11.5393L12.2854 14.1935L9.63121 20.1808L6.97704 14.1935L1 11.5393L6.97704 8.8851Z"
      stroke="#fff"
      stroke-width="1.4"
      stroke-linecap="round"
      stroke-linejoin="round"
      fill="none"
    />
    <path
      d="M17.7826 3.44072L16.3824 4.06408L15.7591 5.46426C15.7015 5.59852 15.5001 5.59852 15.4426 5.46426L14.8192 4.06408L13.4191 3.44072C13.2848 3.38317 13.2848 3.18178 13.4191 3.12424L14.8192 2.50087L15.4426 1.1007C15.5001 0.966434 15.7015 0.966434 15.7591 1.1007L16.3824 2.50087L17.7826 3.12424C17.9169 3.18178 17.9169 3.38317 17.7826 3.44072Z"
      fill="#fff"
    />
    <path
      d="M22.5205 19.008L19.8928 20.178L18.7228 22.8058C18.6077 23.0647 18.2433 23.0647 18.1282 22.8058L16.9582 20.178L14.3304 19.008C14.0715 18.893 14.0715 18.5285 14.3304 18.4134L16.9582 17.2434L18.1282 14.6157C18.2433 14.3568 18.6077 14.3568 18.7228 14.6157L19.8928 17.2434L22.5205 18.4134C22.7794 18.5285 22.7794 18.893 22.5205 19.008Z"
      fill="#fff"
    />
  </g>
</svg>
