<svg width="15" height="15" viewBox="0 0 15 15" fill="none" xmlns="http://www.w3.org/2000/svg">
  <g opacity="0.4">
    <path d="M9.14561 6.24356H7.13403L7.52236 5.21754C7.62182 4.95479 7.53344 4.65431 7.31079 4.49734C7.05647 4.31821 6.71351 4.38478 6.53596 4.64754L5.45723 6.24356H5.45223V8.61787C5.45223 9.20064 5.92472 9.67313 6.50748 9.67313H8.27503C8.48344 9.67313 8.6726 9.55019 8.75728 9.35972L9.62786 7.40096C9.65794 7.33342 9.67324 7.26061 9.67324 7.18674V6.77118C9.67324 6.47967 9.43712 6.24356 9.14561 6.24356ZM4.66079 9.67313C4.51516 9.67313 4.39697 9.55494 4.39697 9.40931V6.50737C4.39697 6.36174 4.51516 6.24356 4.66079 6.24356C4.80641 6.24356 4.9246 6.36174 4.9246 6.50737V9.40931C4.9246 9.55494 4.80641 9.67313 4.66079 9.67313Z" fill="#686868"/>
  </g>
</svg>
