<svg width="224" height="191" viewBox="0 0 224 191" fill="none" xmlns="http://www.w3.org/2000/svg">
<path d="M125.899 0C216.416 0 223.5 6.91243 223.5 95.2587C223.5 183.605 216.416 190.517 125.903 190.517C35.3895 190.517 28.306 183.605 28.306 95.2587C28.306 6.91243 35.3895 0 125.903 0H125.899Z" fill="#599D15"/>
<mask id="panda_mask_1436_26818" style="mask-type:luminance" maskUnits="userSpaceOnUse" x="28" y="0" width="196" height="191">
<path d="M125.899 0C216.416 0 223.5 6.91243 223.5 95.2587C223.5 183.605 216.416 190.517 125.903 190.517C35.3895 190.517 28.306 183.605 28.306 95.2587C28.306 6.91243 35.3895 0 125.903 0H125.899Z" fill="white"/>
</mask>
<g mask="url(#panda_mask_1436_26818)">
<path d="M223.768 139.039C237.039 149.1 244.95 153.462 255.096 147.108C265.243 140.758 265.777 129.874 258.771 115.397C255.768 109.193 240.184 85.6863 226.001 88.4236C220.098 89.5641 203.695 110.208 203.337 117.043C203.06 122.293 218.457 135.01 223.768 139.039Z" fill="#48413F"/>
<path d="M164.53 253.23C172.991 268.171 187.956 278.709 205.207 273.34C222.457 267.972 230.388 241.788 225.251 215.214C222.241 199.625 210.514 172.338 200.64 169.503C194.559 167.756 149.37 196.705 145.382 203.581C141.162 210.86 155.447 237.19 164.53 253.23Z" fill="#48413F"/>
<path d="M160.714 48.5464C166.433 59.8377 178.013 68.6523 188.502 63.4263C198.991 58.2043 208.441 37.5851 202.718 26.2898C196.999 14.9985 182.75 10.3346 172.258 15.5566C161.769 20.7786 154.991 37.2511 160.71 48.5424L160.714 48.5464Z" fill="#48413F"/>
<path d="M92.3229 49.4257C94.1396 61.9348 89.7119 75.7271 78.0947 77.3809C66.4736 79.0387 46.8401 67.4705 45.0234 54.9613C43.2067 42.4521 52.2169 30.554 63.834 28.8961C75.4552 27.2383 90.5062 36.9165 92.3229 49.4257Z" fill="#48413F"/>
<g opacity="0.1" style="mix-blend-mode:multiply">
<path d="M203.341 117.046C203.699 110.211 220.103 89.5677 226.005 88.4272C240.188 85.6899 255.773 109.197 258.775 115.401C261.915 121.894 263.536 127.657 263.459 132.619C263.858 133.083 264.233 133.596 264.571 134.154C266.62 137.568 266.494 141.388 264.29 142.688C263.524 143.14 262.612 143.226 261.659 143.01C261.773 143.181 261.887 143.356 261.997 143.535C264.046 146.949 263.919 150.769 261.716 152.069C259.948 153.112 257.386 152.215 255.382 150.065C256.115 152.647 255.634 155.054 253.976 156.032C251.773 157.331 248.327 155.621 246.278 152.207C245.854 151.507 245.528 150.786 245.288 150.073C244.767 150.057 244.241 150.012 243.716 149.938C243.158 151.698 241.683 153.03 239.83 153.221C237.28 153.486 234.978 151.49 234.693 148.769C234.616 148.032 234.693 147.319 234.901 146.663C231.561 144.786 227.932 142.191 223.773 139.042C218.461 135.014 203.068 122.297 203.341 117.046Z" fill="#48413F"/>
</g>
<path d="M36.237 162.494C44.0985 216.693 85.8175 281.312 159.569 268.718C225.883 257.39 246.494 192.204 240.693 138.913L224.803 114.212L227.883 84.7542C220.559 64.1839 209.989 44.0047 195.618 33.3407C174.612 17.7521 147.439 12.1513 119.007 16.2042C90.4163 20.2816 65.9152 33.4588 50.1067 54.3998C27.4834 84.3672 32.3714 135.834 36.2411 162.494H36.237Z" fill="white"/>
<path d="M36.0533 161.222C34.1918 148.094 32.1959 129.45 33.1979 110.366C56.534 120.847 98.3344 118.159 133.455 113.515C175.389 107.967 204.225 96.8186 227.862 84.6964C234.261 102.656 238.184 120.925 240 133.43C240.261 135.238 240.493 137.067 240.693 138.908C217.117 131.071 178.229 123.8 135.125 128.725C95.9067 133.206 59.5319 141.234 36.0533 161.218V161.222Z" fill="#48413F"/>
<path d="M52.0412 110.737C46.1919 107.291 41.9434 102.884 38.1878 99.2668C37.2998 97.7556 36.7051 96.5132 36.2122 95.226C33.5931 88.167 28.6603 92.1222 28.6766 92.4969C28.6277 91.5845 25.4872 92.0407 23.479 86.0692C21.7927 81.055 18.9699 78.0774 14.5422 79.9877C12.0982 81.0427 11.0554 85.8004 12.921 89.6822C10.4648 87.0264 7.40978 85.8778 5.3609 87.0916C2.78249 88.6232 2.77435 93.3034 5.34054 97.5519C5.5442 97.89 5.76009 98.2077 5.98005 98.5173C4.50551 97.8941 3.06761 97.8452 1.9393 98.5173C-0.639114 100.049 -0.647255 104.729 1.91894 108.978C3.38533 111.405 6.46476 114.31 8.3833 115.083C6.70916 132.656 17.8864 154.253 36.53 159.405C37.141 159.576 41.4139 152.558 47.3568 148.77C53.479 144.872 61.2754 144.183 61.6175 143.589C68.3711 131.768 72.1919 122.603 52.0452 110.729L52.0412 110.737Z" fill="#48413F"/>
<path d="M32.1478 98.1039C29.1169 97.3167 27.3631 93.9708 28.2307 90.6307C29.0982 87.2906 32.2586 85.2211 35.2895 86.0083C38.3204 86.7955 40.0742 90.1414 39.2066 93.4815C38.3391 96.8216 35.1787 98.8911 32.1478 98.1039Z" fill="#48413F"/>
<path d="M14.0706 111.287C11.6538 107.885 13.6627 102.308 18.5576 98.8307C23.4524 95.3534 29.3797 95.2924 31.7965 98.6944C34.2133 102.096 32.2044 107.673 27.3095 111.15C22.4147 114.628 16.4874 114.689 14.0706 111.287Z" fill="#58524F"/>
<path d="M30.9955 92.4424C30.4342 90.9639 31.2186 89.2947 32.7476 88.7142C34.2766 88.1337 35.9712 88.8617 36.5325 90.3402C37.0939 91.8187 36.3094 93.4879 34.7804 94.0684C33.2514 94.6489 31.5569 93.9209 30.9955 92.4424Z" fill="#58524F"/>
<path d="M120.534 66.5412C120.255 64.3951 122.615 62.3191 125.805 61.9042C128.995 61.4893 131.807 62.8927 132.087 65.0388C132.366 67.1848 130.006 69.2609 126.816 69.6758C123.626 70.0907 120.813 68.6873 120.534 66.5412Z" fill="#48413F"/>
<path d="M163.011 67.3359C157.715 67.3359 153.422 63.0794 153.422 57.8288C153.422 52.5781 157.715 48.3217 163.011 48.3217C168.306 48.3217 172.599 52.5781 172.599 57.8288C172.599 63.0794 168.306 67.3359 163.011 67.3359Z" fill="#48413F"/>
<path d="M156.121 56.648C155.877 54.3482 157.622 52.2781 160.017 52.0241C162.413 51.7702 164.553 53.4287 164.797 55.7284C165.041 58.0281 163.296 60.0983 160.9 60.3523C158.504 60.6062 156.364 58.9477 156.121 56.648Z" fill="white"/>
<path d="M88.7782 77.1294C83.4825 77.1294 79.1896 72.8729 79.1896 67.6222C79.1896 62.3716 83.4825 58.1151 88.7782 58.1151C94.0738 58.1151 98.3668 62.3716 98.3668 67.6222C98.3668 72.8729 94.0738 77.1294 88.7782 77.1294Z" fill="#48413F"/>
<path d="M81.8828 66.4434C81.639 64.1437 83.3837 62.0735 85.7797 61.8196C88.1756 61.5656 90.3155 63.2241 90.5592 65.5238C90.803 67.8236 89.0583 69.8937 86.6623 70.1477C84.2664 70.4016 82.1265 68.7431 81.8828 66.4434Z" fill="white"/>
<path d="M119.401 91.2873C120.135 91.1895 120.648 90.5256 120.55 89.8005C120.452 89.0755 119.78 88.5663 119.051 88.664C112.721 89.4991 105.646 88.2404 104.554 87.0103C104.07 86.4604 103.222 86.4074 102.668 86.8881C102.114 87.3687 102.057 88.2078 102.546 88.7577C104.705 91.1977 113.226 92.106 119.406 91.2913L119.401 91.2873Z" fill="#48413F"/>
</g>
<path d="M52.0412 110.737C46.1919 107.291 41.9434 102.884 38.1878 99.267C37.2998 97.7558 36.7051 96.5134 36.2122 95.2263C33.5931 88.1672 28.6603 92.1224 28.6766 92.4972C28.6277 91.5847 25.4872 92.0409 23.479 86.0695C21.7927 81.0552 18.9699 78.0776 14.5422 79.988C12.0982 81.043 11.0554 85.8006 12.921 89.6825C10.4648 87.0267 7.40978 85.878 5.3609 87.0919C2.78249 88.6234 2.77435 93.3037 5.34054 97.5521C5.5442 97.8902 5.76009 98.208 5.98005 98.5175C4.50551 97.8943 3.06761 97.8454 1.9393 98.5175C-0.639114 100.049 -0.647255 104.729 1.91894 108.978C3.38533 111.406 6.46476 114.31 8.3833 115.084C6.70916 132.656 17.8864 154.253 36.53 159.406C37.141 159.577 41.4139 152.558 47.3568 148.77C53.479 144.872 61.2754 144.184 61.6175 143.589C68.3711 131.768 72.1919 122.603 52.0452 110.729L52.0412 110.737Z" fill="#48413F"/>
<path d="M15.1113 85.1666C14.3362 83.7112 14.7492 81.9767 16.0339 81.2924C17.3185 80.6082 18.9884 81.2334 19.7635 82.6888C20.5387 84.1443 20.1257 85.8788 18.841 86.563C17.5563 87.2472 15.8865 86.622 15.1113 85.1666Z" fill="#58524F"/>
<path d="M2.39503 104.977C1.61986 103.522 2.03289 101.787 3.31755 101.103C4.60222 100.419 6.27204 101.044 7.04721 102.499C7.82238 103.955 7.40935 105.689 6.12468 106.374C4.84002 107.058 3.17019 106.433 2.39503 104.977Z" fill="#58524F"/>
<path d="M32.1478 98.1037C29.1169 97.3164 27.3631 93.9706 28.2307 90.6304C29.0982 87.2903 32.2586 85.2208 35.2895 86.0081C38.3204 86.7953 40.0742 90.1412 39.2066 93.4813C38.3391 96.8214 35.1787 98.8909 32.1478 98.1037Z" fill="#48413F"/>
<path d="M5.37047 92.3093C4.62134 90.8403 5.06517 89.1134 6.36182 88.4522C7.65846 87.7909 9.31689 88.4457 10.066 89.9147C10.8152 91.3837 10.3713 93.1106 9.07468 93.7719C7.77804 94.4331 6.11961 93.7783 5.37047 92.3093Z" fill="#58524F"/>
<path d="M14.0706 111.287C11.6538 107.885 13.6627 102.308 18.5576 98.8309C23.4524 95.3536 29.3797 95.2926 31.7965 98.6946C34.2133 102.097 32.2044 107.673 27.3095 111.151C22.4147 114.628 16.4874 114.689 14.0706 111.287Z" fill="#58524F"/>
<path d="M30.9955 92.4427C30.4342 90.9641 31.2186 89.295 32.7476 88.7145C34.2766 88.134 35.9712 88.862 36.5325 90.3405C37.0939 91.819 36.3094 93.4882 34.7804 94.0687C33.2514 94.6492 31.5569 93.9212 30.9955 92.4427Z" fill="#58524F"/>
</svg>
